<svg xmlns="http://www.w3.org/2000/svg" width="132" height="162" viewBox="0 0 132 162">
    <defs>
        <clipPath id="wz1b7ogs2a">
            <path data-name="Rectangle 123" style="fill:none;stroke:#3d87f1" d="M0 0h131.764v131.764H0z"/>
        </clipPath>
    </defs>
    <g data-name="ic-no task list" transform="translate(-127.502 -285.969)">
        <rect data-name="Rectangle 122" width="56" height="58" rx="4" transform="translate(203.502 285.969)" style="fill:#ecf3fe"/>
        <rect data-name="Rectangle 123" width="43" height="44" rx="4" transform="translate(127.502 403.969)" style="fill:#ecf3fe"/>
        <g data-name="ic-no task list">
            <path data-name="Path 287" d="M880.854 369.552h17.333a5.033 5.033 0 0 1 5.034 5.032v29.258" transform="translate(-670.894 -52.941)" style="stroke-linejoin:round;stroke-width:1.5px;stroke-linecap:round;fill:none;stroke:#3d87f1"/>
            <path data-name="Path 288" d="M916.45 423.4v50.67a5.032 5.032 0 0 1-5.032 5.032h-78.675a5.032 5.032 0 0 1-5.032-5.032v-99.486a5.032 5.032 0 0 1 5.032-5.032h17.709" transform="translate(-684.124 -52.941)" style="stroke-linejoin:round;stroke-width:1.5px;stroke-linecap:round;fill:none;stroke:#3d87f1"/>
            <path data-name="Path 289" d="M831.786 401.806V377.39a3.762 3.762 0 0 1 3.762-3.762h13.89" transform="translate(-683.11 -51.926)" style="stroke-width:.5px;stroke-linejoin:round;stroke-linecap:round;fill:none;stroke:#3d87f1"/>
            <path data-name="Path 290" d="M905.619 440.2v12.461a3.763 3.763 0 0 1-3.763 3.762h-51.08" transform="translate(-678.382 -35.352)" style="stroke-width:.5px;stroke-linejoin:round;stroke-linecap:round;fill:none;stroke:#3d87f1"/>
            <path data-name="Line 117" transform="translate(177.634 333.774)" style="stroke-linejoin:round;stroke-width:1.5px;stroke-linecap:round;fill:none;stroke:#3d87f1" d="M0 0h22.482"/>
            <path data-name="Line 118" transform="translate(177.634 338.712)" style="stroke-linejoin:round;stroke-width:1.5px;stroke-linecap:round;fill:none;stroke:#3d87f1" d="M0 0h15.148"/>
            <path data-name="Line 119" transform="translate(177.634 389.283)" style="stroke-linejoin:round;stroke-width:1.5px;stroke-linecap:round;fill:none;stroke:#3d87f1" d="M0 0h17.939"/>
            <path data-name="Line 120" transform="translate(177.634 394.221)" style="stroke-linejoin:round;stroke-width:1.5px;stroke-linecap:round;fill:none;stroke:#3d87f1" d="M0 0h11.241"/>
            <path data-name="Rectangle 124" transform="translate(156.489 385.277)" style="stroke-linejoin:round;stroke-width:1.5px;stroke-linecap:round;fill:none;stroke:#3d87f1" d="M0 0h12.949v12.949H0z"/>
            <path data-name="Rectangle 125" transform="translate(156.489 329.769)" style="stroke-linejoin:round;stroke-width:1.5px;stroke-linecap:round;fill:none;stroke:#3d87f1" d="M0 0h12.949v12.949H0z"/>
            <path data-name="Line 121" transform="translate(177.634 361.512)" style="stroke-linejoin:round;stroke-width:1.5px;stroke-linecap:round;fill:none;stroke:#3d87f1" d="M0 0h22.482"/>
            <path data-name="Line 122" transform="translate(177.634 366.45)" style="stroke-linejoin:round;stroke-width:1.5px;stroke-linecap:round;fill:none;stroke:#3d87f1" d="M0 0h13.833"/>
            <path data-name="Rectangle 126" transform="translate(156.489 357.506)" style="stroke-linejoin:round;stroke-width:1.5px;stroke-linecap:round;fill:none;stroke:#3d87f1" d="M0 0h12.949v12.949H0z"/>
            <path data-name="Path 291" d="M885.444 368.805v5.695a1.8 1.8 0 0 1-1.8 1.8h-33.436a1.8 1.8 0 0 1-1.8-1.8v-5.691a1.8 1.8 0 0 1 1.8-1.8h11.35a.824.824 0 0 0 .807-.607c.44-1.752 2.368-3.064 4.684-3.064 2.348 0 4.307 1.349 4.711 3.137a.72.72 0 0 0 .713.533h11.172a1.8 1.8 0 0 1 1.799 1.797z" transform="translate(-678.971 -54.488)" style="stroke-linejoin:round;stroke-width:1.5px;stroke-linecap:round;fill:none;stroke:#3d87f1"/>
            <path data-name="Line 123" transform="translate(197.004 314.554)" style="stroke-width:.5px;stroke-linejoin:round;stroke-linecap:round;fill:none;stroke:#3d87f1" d="M0 0h7.434"/>
            <path data-name="Path 292" d="M850.041 373.853V368.9a.261.261 0 0 1 .261-.261h13.255a.263.263 0 0 0 .261-.249l.084-1.686c.042-.838 1.154-1.735 2.741-1.735" transform="translate(-678.565 -54.082)" style="stroke-width:.5px;stroke-linejoin:round;stroke-linecap:round;fill:none;stroke:#3d87f1"/>
            <path data-name="Rectangle 127" transform="rotate(-45 567.217 -53.504)" style="stroke-linejoin:round;stroke-width:1.5px;stroke-linecap:round;fill:none;stroke:#3d87f1" d="M0 0h48.788v5.142H0z"/>
            <path data-name="Path 293" d="m872.732 432.466 4.4-8.033 3.636 3.637z" transform="translate(-672.916 -39.278)" style="stroke-linejoin:round;stroke-width:1.5px;stroke-linecap:round;fill:none;stroke:#3d87f1"/>
            <path data-name="Path 294" d="m906.341 400.4-2.255-2.254 1.719-1.72a1.594 1.594 0 1 1 2.256 2.254z" transform="translate(-665.111 -46.368)" style="stroke-linejoin:round;stroke-width:1.5px;stroke-linecap:round;fill:none;stroke:#3d87f1"/>
        </g>
    </g>
</svg>
