<svg xmlns="http://www.w3.org/2000/svg" width="24" height="25.144" viewBox="0 0 24 25.144">
    <defs>
        <clipPath id="m9x6fjm9xa">
            <path data-name="Rectangle 4300" transform="translate(91.499 87.518)" style="fill:none;stroke:#3d87f1" d="M0 0h24v24H0z"/>
        </clipPath>
    </defs>
    <g data-name="Group 468">
        <path data-name="Line 789" transform="translate(18.216 13.94)" style="stroke-linecap:round;stroke-miterlimit:10;stroke-width:1.5px;fill:none;stroke:#3d87f1" d="M0 0v.531"/>
        <path data-name="Path 26386" d="M109.715 101.922c0 1.194 1.7 2.58 1.905 2.751a.167.167 0 0 1 .024.015 1.584 1.584 0 0 1-.879 2.9h-14.16a1.584 1.584 0 0 1-.879-2.9.168.168 0 0 1 .024-.015c.21-.171 1.9-1.557 1.9-2.751v-5.673a5.842 5.842 0 0 1 5.592-6.084H103.537c.2 0 .483 0 .579.006a5.842 5.842 0 0 1 5.592 6.084v3.115" style="stroke-linecap:round;stroke-miterlimit:10;stroke-width:1.5px;fill:none;stroke:#3d87f1" transform="translate(-91.499 -86.449)"/>
        <path data-name="Path 610" d="M101.165 108.817a2.674 2.674 0 0 1-.075-.63" style="stroke-linecap:round;stroke-miterlimit:10;stroke-width:1.5px;fill:none;stroke:#3d87f1" transform="translate(-91.499 -86.449)"/>
        <path data-name="Path 611" d="M106.393 108.188a2.655 2.655 0 0 1-4.992 1.26" style="stroke-linecap:round;stroke-miterlimit:10;stroke-width:1.5px;fill:none;stroke:#3d87f1" transform="translate(-91.499 -86.449)"/>
        <path data-name="Path 612" d="M102.408 88.087a1.214 1.214 0 0 1 1.168-.883 1.116 1.116 0 0 1 1.166.881" style="stroke-linecap:round;stroke-miterlimit:10;stroke-width:1.5px;fill:none;stroke:#3d87f1" transform="translate(-91.499 -86.449)"/>
    </g>
</svg>
