<svg id="Layer_1" data-name="Layer 1" xmlns="http://www.w3.org/2000/svg" viewBox="0 0 230 230"><defs><style>.cls-1{fill:#3d87f1;}.cls-2{fill:none;}.cls-3,.cls-6{isolation:isolate;}.cls-3{opacity:0.3;}.cls-4{fill:#fff;}.cls-5{fill:#444343;}</style></defs><g id="Group_10892" data-name="Group 10892"><g id="Rectangle_3769-2" data-name="Rectangle 3769-2"><rect class="cls-1" x="73.48" y="46.5" width="84.05" height="84.05" rx="12.61"/></g><g id="Icons_-_Actions_-_ic-actions-emultiple-edit" data-name="Icons - Actions - ic-actions-emultiple-edit"><g id="Rectangle_131" data-name="Rectangle 131"><rect class="cls-2" x="81.88" y="59.49" width="63.04" height="63.04"/></g><g id="ic-actions-emultiple-edit"><g id="Rectangle_3768" data-name="Rectangle 3768" class="cls-3"><rect class="cls-4" x="90.29" y="70" width="42.02" height="42.02"/></g><g id="Path_15" data-name="Path 15"><path class="cls-4" d="M95.74,113.48a7.59,7.59,0,0,1-7.42-6.86V74.28a7.67,7.67,0,0,1,8.18-7h17.27a2.11,2.11,0,0,1,0,4.21H96.32a3.45,3.45,0,0,0-3.82,3v31.94a3.41,3.41,0,0,0,3.64,2.85h30.37a3.44,3.44,0,0,0,3.82-3.05V92.33a2.11,2.11,0,1,1,4.21,0v14.09a7.66,7.66,0,0,1-8.19,7h-30A5.62,5.62,0,0,1,95.74,113.48Z"/></g><g id="ic-contact-map-pin"><g id="Group_10891" data-name="Group 10891"><g id="Rectangle_26-2" data-name="Rectangle 26-2"><path class="cls-4" d="M140.5,60.25l.18.15a11.51,11.51,0,0,1,1.68,16.2h0a11.53,11.53,0,0,1-16.21,1.69l-.18-.15a11.53,11.53,0,0,1-1.68-16.21h0A11.53,11.53,0,0,1,140.5,60.25Z"/><path class="cls-5" d="M133.39,83a13.5,13.5,0,0,1-8.56-3l-.19-.14a13.63,13.63,0,0,1,17.18-21.17l.19.16a13.63,13.63,0,0,1-7.19,24.13A13.83,13.83,0,0,1,133.39,83Zm-.15-23.19A9.41,9.41,0,0,0,127.3,76.5l.18.15A9.42,9.42,0,0,0,139.35,62l-.18-.15A9.41,9.41,0,0,0,133.24,59.78Z"/></g><g id="Rectangle_3771" data-name="Rectangle 3771"><path class="cls-1" d="M137,64l.18.15a6.39,6.39,0,0,1,.95,9h0a6.39,6.39,0,0,1-9,1l-.18-.15a6.39,6.39,0,0,1-.95-9h0A6.4,6.4,0,0,1,137,64Z"/></g><g id="Subtraction_1-2" data-name="Subtraction 1-2"><path class="cls-4" d="M118,88.5h0l1.86-8.37.6.49a3.17,3.17,0,0,0,4.81,3.9l.54.44L118,88.5Z"/><path class="cls-5" d="M115,92.16l3.51-15.82L123.1,80l-.74,1.5A1.07,1.07,0,0,0,124,82.86l1.33-1,4.49,3.65Z"/></g></g></g></g><g id="Path_22427" data-name="Path 22427"><path class="cls-4" d="M109.18,111.05a2.1,2.1,0,0,1-2.1-2.1V92.79a1.06,1.06,0,0,1,0-.25,2.08,2.08,0,0,1,.46-1.59,2.11,2.11,0,0,1,3-.29,2.44,2.44,0,0,1,.88,1.88,2.25,2.25,0,0,1-.12.74V109A2.1,2.1,0,0,1,109.18,111.05ZM107.84,93.9h0Z"/></g><g id="Path_22428" data-name="Path 22428"><path class="cls-4" d="M109.3,102.72a2.1,2.1,0,0,1-1.92-3,2.3,2.3,0,0,1,2.71-1.24h8a2.1,2.1,0,0,1,0,4.2H109.3Z"/></g><g id="Path_22429" data-name="Path 22429"><path class="cls-4" d="M101,81.92a2.11,2.11,0,0,1-2.11-2.1V71.87a2.14,2.14,0,0,1-.12-.66,2.25,2.25,0,0,1,1.37-2,2.1,2.1,0,0,1,2.95,2,.62.62,0,0,1,0,.13v8.48A2.1,2.1,0,0,1,101,81.92Z"/></g></g></g><g id="Solarway" class="cls-6"><g class="cls-6"><path class="cls-5" d="M25,169.68l1.58-1.85a8.74,8.74,0,0,0,6.18,2.66c2.9,0,4.61-1.45,4.61-3.57s-1.61-3-3.66-3.86l-3.2-1.42c-2.05-.87-4.44-2.42-4.44-5.68S29,150.11,33,150.11a9.21,9.21,0,0,1,6.52,2.65L38,154.65a7.16,7.16,0,0,0-5-2.05c-2.45,0-4.07,1.24-4.07,3.19,0,2.12,1.92,2.93,3.63,3.63l3.16,1.38c2.56,1.08,4.55,2.63,4.55,5.89,0,3.5-2.9,6.29-7.54,6.29A10.35,10.35,0,0,1,25,169.68Z"/><path class="cls-5" d="M47.47,161.44c0-7.06,3.87-11.33,9.42-11.33s9.45,4.3,9.45,11.33S62.44,173,56.89,173,47.47,168.54,47.47,161.44Zm16,0c0-5.48-2.59-8.84-6.53-8.84S50.4,156,50.4,161.44s2.56,9.05,6.49,9.05S63.42,167,63.42,161.44Z"/><path class="cls-5" d="M75.24,150.51h2.83v19.68h9.62v2.38H75.24Z"/><path class="cls-5" d="M100.36,150.51h3.23L111,172.57h-3l-2.09-6.69h-8l-2.12,6.69H92.93Zm-1.72,13.08h6.59l-1-3.33c-.8-2.45-1.51-4.87-2.22-7.43h-.13c-.67,2.56-1.38,5-2.15,7.43Z"/><path class="cls-5" d="M118.31,150.51h6.89c4.51,0,7.74,1.61,7.74,6.22A6,6,0,0,1,128,163l5.61,9.62h-3.19l-5.32-9.31h-4v9.31h-2.82ZM124.8,161c3.43,0,5.32-1.41,5.32-4.24s-1.89-3.93-5.32-3.93h-3.67V161Z"/><path class="cls-5" d="M139.59,150.51h2.93l2.28,12c.44,2.39.81,4.74,1.21,7.23h.14c.43-2.49.94-4.84,1.48-7.23l3.06-12h2.79l3,12c.54,2.35,1.11,4.74,1.58,7.23h.14c.37-2.49.77-4.84,1.17-7.23l2.36-12h2.72l-4.6,22.06h-3.5l-3.26-13.31c-.41-1.75-.68-3.27-1-5.18H152c-.33,1.91-.67,3.43-1,5.18l-3.19,13.31h-3.47Z"/><path class="cls-5" d="M176.94,150.51h3.23l7.44,22.06h-3l-2.08-6.69h-8l-2.12,6.69h-2.86Zm-1.71,13.08h6.59l-1-3.33c-.81-2.45-1.52-4.87-2.22-7.43h-.14c-.67,2.56-1.38,5-2.15,7.43Z"/><path class="cls-5" d="M198,164l-6.63-13.52h3l2.83,6.22c.7,1.62,1.37,3.17,2.15,4.81h.13c.74-1.64,1.52-3.19,2.19-4.81l2.82-6.22h3L200.81,164v8.54H198Z"/></g></g></svg>